<mxfile host="app.diagrams.net" modified="2024-06-09T23:42:36.751Z" agent="Mozilla/5.0 (Windows NT 10.0; Win64; x64) AppleWebKit/537.36 (KHTML, like Gecko) Chrome/125.0.0.0 Safari/537.36 Edg/125.0.0.0" etag="-3uVvsm-14DEfitI0i2w" version="24.5.2" type="device">
  <diagram name="Page-1" id="kbZAYnAyBLiqjPsyMC-6">
    <mxGraphModel dx="1107" dy="513" grid="1" gridSize="10" guides="1" tooltips="1" connect="1" arrows="1" fold="1" page="1" pageScale="1" pageWidth="1100" pageHeight="1200" math="0" shadow="0">
      <root>
        <mxCell id="0" />
        <mxCell id="1" parent="0" />
        <mxCell id="MsW9FWLSRBTSgLmZQZIl-1" value="Arduino Uno" style="rounded=0;whiteSpace=wrap;html=1;points=[[0,0,0,0,0],[0,0.25,0,0,0],[0,0.5,0,0,-96],[0,0.5,0,0,-30],[0,0.5,0,0,0],[0,0.5,0,0,30],[0,0.5,0,0,96],[0,0.75,0,0,0],[0,1,0,0,0],[0.2,1,0,0,0],[0.25,0,0,0,0],[0.4,1,0,0,0],[0.5,0,0,0,0],[0.6,1,0,0,0],[0.75,0,0,0,0],[0.8,1,0,0,0],[1,0,0,0,0],[1,0.25,0,0,0],[1,0.5,0,0,0],[1,0.75,0,0,0],[1,1,0,0,0]];" vertex="1" parent="1">
          <mxGeometry x="570" y="240" width="230" height="260" as="geometry" />
        </mxCell>
        <mxCell id="MsW9FWLSRBTSgLmZQZIl-2" value="" style="endArrow=none;html=1;rounded=0;edgeStyle=orthogonalEdgeStyle;exitX=1;exitY=0.25;exitDx=0;exitDy=0;entryX=0;entryY=0.5;entryDx=0;entryDy=-96;entryPerimeter=0;fillColor=#f8cecc;strokeColor=#b85450;jumpStyle=arc;jumpSize=28;" edge="1" parent="1" source="MsW9FWLSRBTSgLmZQZIl-8" target="MsW9FWLSRBTSgLmZQZIl-1">
          <mxGeometry width="50" height="50" relative="1" as="geometry">
            <mxPoint x="250" y="102.5" as="sourcePoint" />
            <mxPoint x="590" y="274" as="targetPoint" />
            <Array as="points">
              <mxPoint x="330" y="103" />
              <mxPoint x="330" y="274" />
            </Array>
          </mxGeometry>
        </mxCell>
        <mxCell id="MsW9FWLSRBTSgLmZQZIl-10" value="VCC" style="edgeLabel;html=1;align=center;verticalAlign=middle;resizable=0;points=[];" vertex="1" connectable="0" parent="MsW9FWLSRBTSgLmZQZIl-2">
          <mxGeometry x="-0.9009" y="1" relative="1" as="geometry">
            <mxPoint as="offset" />
          </mxGeometry>
        </mxCell>
        <mxCell id="MsW9FWLSRBTSgLmZQZIl-3" value="5V" style="text;html=1;align=center;verticalAlign=middle;whiteSpace=wrap;rounded=0;" vertex="1" parent="1">
          <mxGeometry x="560" y="260" width="60" height="30" as="geometry" />
        </mxCell>
        <mxCell id="MsW9FWLSRBTSgLmZQZIl-4" value="" style="endArrow=none;html=1;rounded=0;edgeStyle=orthogonalEdgeStyle;exitX=1;exitY=0.5;exitDx=0;exitDy=0;entryX=0;entryY=0.25;entryDx=0;entryDy=0;entryPerimeter=0;" edge="1" parent="1" source="MsW9FWLSRBTSgLmZQZIl-8" target="MsW9FWLSRBTSgLmZQZIl-1">
          <mxGeometry width="50" height="50" relative="1" as="geometry">
            <mxPoint x="90" y="250" as="sourcePoint" />
            <mxPoint x="510" y="310" as="targetPoint" />
            <Array as="points">
              <mxPoint x="300" y="135" />
              <mxPoint x="300" y="305" />
            </Array>
          </mxGeometry>
        </mxCell>
        <mxCell id="MsW9FWLSRBTSgLmZQZIl-11" value="GND" style="edgeLabel;html=1;align=center;verticalAlign=middle;resizable=0;points=[];" vertex="1" connectable="0" parent="MsW9FWLSRBTSgLmZQZIl-4">
          <mxGeometry x="-0.936" y="1" relative="1" as="geometry">
            <mxPoint as="offset" />
          </mxGeometry>
        </mxCell>
        <mxCell id="MsW9FWLSRBTSgLmZQZIl-5" value="GND" style="text;html=1;align=center;verticalAlign=middle;whiteSpace=wrap;rounded=0;" vertex="1" parent="1">
          <mxGeometry x="560" y="290" width="60" height="30" as="geometry" />
        </mxCell>
        <mxCell id="MsW9FWLSRBTSgLmZQZIl-6" value="" style="endArrow=none;html=1;rounded=0;entryX=0;entryY=0.5;entryDx=0;entryDy=-30;entryPerimeter=0;edgeStyle=orthogonalEdgeStyle;exitX=1;exitY=0.75;exitDx=0;exitDy=0;fillColor=#dae8fc;strokeColor=#6c8ebf;" edge="1" parent="1" source="MsW9FWLSRBTSgLmZQZIl-8" target="MsW9FWLSRBTSgLmZQZIl-1">
          <mxGeometry width="50" height="50" relative="1" as="geometry">
            <mxPoint x="470" y="340" as="sourcePoint" />
            <mxPoint x="480" y="380" as="targetPoint" />
            <Array as="points">
              <mxPoint x="270" y="168" />
              <mxPoint x="270" y="340" />
            </Array>
          </mxGeometry>
        </mxCell>
        <mxCell id="MsW9FWLSRBTSgLmZQZIl-15" value="DATA" style="edgeLabel;html=1;align=center;verticalAlign=middle;resizable=0;points=[];" vertex="1" connectable="0" parent="MsW9FWLSRBTSgLmZQZIl-6">
          <mxGeometry x="-0.9324" y="-1" relative="1" as="geometry">
            <mxPoint as="offset" />
          </mxGeometry>
        </mxCell>
        <mxCell id="MsW9FWLSRBTSgLmZQZIl-7" value="A0" style="text;html=1;align=center;verticalAlign=middle;whiteSpace=wrap;rounded=0;" vertex="1" parent="1">
          <mxGeometry x="560" y="330" width="60" height="30" as="geometry" />
        </mxCell>
        <mxCell id="MsW9FWLSRBTSgLmZQZIl-8" value="HiLetgo 433 MHz&lt;br&gt;RF Wireless Transmitter" style="rounded=0;whiteSpace=wrap;html=1;" vertex="1" parent="1">
          <mxGeometry x="100" y="70" width="130" height="130" as="geometry" />
        </mxCell>
        <mxCell id="MsW9FWLSRBTSgLmZQZIl-16" value="DS3231 AT24C32 I2C Real Time Clock (RTC)" style="rounded=0;whiteSpace=wrap;html=1;points=[[0,0,0,0,0],[0,0.25,0,0,0],[0,0.5,0,0,0],[0,0.75,0,0,0],[0,1,0,0,0],[0.25,0,0,0,0],[0.25,1,0,0,0],[0.5,0,0,0,0],[0.5,1,0,0,0],[0.75,0,0,0,0],[0.75,1,0,0,0],[1,0,0,0,0],[1,0.25,0,0,0],[1,0.5,0,0,-19],[1,0.5,0,0,0],[1,0.5,0,0,19],[1,0.75,0,0,0],[1,1,0,0,0]];" vertex="1" parent="1">
          <mxGeometry x="40" y="340" width="120" height="210" as="geometry" />
        </mxCell>
        <mxCell id="MsW9FWLSRBTSgLmZQZIl-17" value="" style="endArrow=none;html=1;rounded=0;edgeStyle=orthogonalEdgeStyle;fillColor=#f8cecc;strokeColor=#b85450;exitX=1;exitY=0.25;exitDx=0;exitDy=0;exitPerimeter=0;jumpStyle=arc;jumpSize=14;" edge="1" parent="1" source="MsW9FWLSRBTSgLmZQZIl-16">
          <mxGeometry width="50" height="50" relative="1" as="geometry">
            <mxPoint x="180" y="380" as="sourcePoint" />
            <mxPoint x="330" y="270" as="targetPoint" />
            <Array as="points">
              <mxPoint x="330" y="393" />
            </Array>
          </mxGeometry>
        </mxCell>
        <mxCell id="MsW9FWLSRBTSgLmZQZIl-18" value="VCC" style="edgeLabel;html=1;align=center;verticalAlign=middle;resizable=0;points=[];" vertex="1" connectable="0" parent="MsW9FWLSRBTSgLmZQZIl-17">
          <mxGeometry x="-0.9009" y="1" relative="1" as="geometry">
            <mxPoint x="6" as="offset" />
          </mxGeometry>
        </mxCell>
        <mxCell id="MsW9FWLSRBTSgLmZQZIl-19" value="" style="endArrow=none;html=1;rounded=0;edgeStyle=orthogonalEdgeStyle;exitX=1;exitY=0.5;exitDx=0;exitDy=-19;exitPerimeter=0;jumpStyle=arc;jumpSize=14;" edge="1" parent="1" source="MsW9FWLSRBTSgLmZQZIl-16">
          <mxGeometry width="50" height="50" relative="1" as="geometry">
            <mxPoint x="220" y="430" as="sourcePoint" />
            <mxPoint x="300" y="300" as="targetPoint" />
            <Array as="points">
              <mxPoint x="300" y="426" />
            </Array>
          </mxGeometry>
        </mxCell>
        <mxCell id="MsW9FWLSRBTSgLmZQZIl-20" value="GND" style="edgeLabel;html=1;align=center;verticalAlign=middle;resizable=0;points=[];" vertex="1" connectable="0" parent="MsW9FWLSRBTSgLmZQZIl-19">
          <mxGeometry x="-0.936" y="1" relative="1" as="geometry">
            <mxPoint x="11" as="offset" />
          </mxGeometry>
        </mxCell>
        <mxCell id="MsW9FWLSRBTSgLmZQZIl-21" value="" style="endArrow=none;html=1;rounded=0;exitX=1;exitY=0.5;exitDx=0;exitDy=0;exitPerimeter=0;edgeStyle=orthogonalEdgeStyle;entryX=0;entryY=0.5;entryDx=0;entryDy=0;entryPerimeter=0;fillColor=#d5e8d4;strokeColor=#82b366;" edge="1" parent="1" source="MsW9FWLSRBTSgLmZQZIl-16" target="MsW9FWLSRBTSgLmZQZIl-1">
          <mxGeometry width="50" height="50" relative="1" as="geometry">
            <mxPoint x="280" y="510" as="sourcePoint" />
            <mxPoint x="360" y="445" as="targetPoint" />
            <Array as="points">
              <mxPoint x="360" y="445" />
              <mxPoint x="360" y="370" />
            </Array>
          </mxGeometry>
        </mxCell>
        <mxCell id="MsW9FWLSRBTSgLmZQZIl-23" value="SWQ" style="edgeLabel;html=1;align=center;verticalAlign=middle;resizable=0;points=[];" vertex="1" connectable="0" parent="MsW9FWLSRBTSgLmZQZIl-21">
          <mxGeometry x="-0.9244" relative="1" as="geometry">
            <mxPoint x="2" as="offset" />
          </mxGeometry>
        </mxCell>
        <mxCell id="MsW9FWLSRBTSgLmZQZIl-22" value="2" style="text;html=1;align=center;verticalAlign=middle;whiteSpace=wrap;rounded=0;" vertex="1" parent="1">
          <mxGeometry x="560" y="355" width="60" height="30" as="geometry" />
        </mxCell>
        <mxCell id="MsW9FWLSRBTSgLmZQZIl-24" value="" style="endArrow=none;html=1;rounded=0;exitX=1;exitY=0.5;exitDx=0;exitDy=19;exitPerimeter=0;edgeStyle=orthogonalEdgeStyle;entryX=0;entryY=0.5;entryDx=0;entryDy=30;entryPerimeter=0;fillColor=#e1d5e7;strokeColor=#9673a6;" edge="1" parent="1" source="MsW9FWLSRBTSgLmZQZIl-16" target="MsW9FWLSRBTSgLmZQZIl-1">
          <mxGeometry width="50" height="50" relative="1" as="geometry">
            <mxPoint x="280" y="510" as="sourcePoint" />
            <mxPoint x="380" y="464" as="targetPoint" />
            <Array as="points">
              <mxPoint x="390" y="464" />
              <mxPoint x="390" y="400" />
            </Array>
          </mxGeometry>
        </mxCell>
        <mxCell id="MsW9FWLSRBTSgLmZQZIl-25" value="SCL" style="edgeLabel;html=1;align=center;verticalAlign=middle;resizable=0;points=[];" vertex="1" connectable="0" parent="MsW9FWLSRBTSgLmZQZIl-24">
          <mxGeometry x="-0.9142" y="-1" relative="1" as="geometry">
            <mxPoint as="offset" />
          </mxGeometry>
        </mxCell>
        <mxCell id="MsW9FWLSRBTSgLmZQZIl-26" value="" style="endArrow=none;html=1;rounded=0;exitX=1;exitY=0.75;exitDx=0;exitDy=0;exitPerimeter=0;edgeStyle=orthogonalEdgeStyle;entryX=0;entryY=0.75;entryDx=0;entryDy=0;entryPerimeter=0;fillColor=#ffe6cc;strokeColor=#d79b00;" edge="1" parent="1" source="MsW9FWLSRBTSgLmZQZIl-16" target="MsW9FWLSRBTSgLmZQZIl-1">
          <mxGeometry width="50" height="50" relative="1" as="geometry">
            <mxPoint x="280" y="510" as="sourcePoint" />
            <mxPoint x="370" y="500" as="targetPoint" />
            <Array as="points">
              <mxPoint x="410" y="498" />
              <mxPoint x="410" y="435" />
            </Array>
          </mxGeometry>
        </mxCell>
        <mxCell id="MsW9FWLSRBTSgLmZQZIl-29" value="SDA" style="edgeLabel;html=1;align=center;verticalAlign=middle;resizable=0;points=[];" vertex="1" connectable="0" parent="MsW9FWLSRBTSgLmZQZIl-26">
          <mxGeometry x="-0.9182" relative="1" as="geometry">
            <mxPoint as="offset" />
          </mxGeometry>
        </mxCell>
        <mxCell id="MsW9FWLSRBTSgLmZQZIl-27" value="SCL" style="text;html=1;align=center;verticalAlign=middle;whiteSpace=wrap;rounded=0;" vertex="1" parent="1">
          <mxGeometry x="560" y="385" width="60" height="30" as="geometry" />
        </mxCell>
        <mxCell id="MsW9FWLSRBTSgLmZQZIl-28" value="SDA" style="text;html=1;align=center;verticalAlign=middle;whiteSpace=wrap;rounded=0;" vertex="1" parent="1">
          <mxGeometry x="560" y="415" width="60" height="30" as="geometry" />
        </mxCell>
        <mxCell id="MsW9FWLSRBTSgLmZQZIl-30" value="Sunfounder 20x4 LCD Module I2C with interface chip" style="rounded=0;whiteSpace=wrap;html=1;points=[[0,0,0,0,0],[0,0.25,0,0,0],[0,0.5,0,0,0],[0,0.75,0,0,0],[0,1,0,0,0],[0.25,0,0,0,0],[0.25,1,0,0,0],[0.5,0,0,0,0],[0.5,1,0,0,0],[0.75,0,0,0,0],[0.75,1,0,0,0],[1,0,0,0,0],[1,0.2,0,0,0],[1,0.4,0,0,0],[1,0.6,0,0,0],[1,0.8,0,0,0],[1,1,0,0,0]];" vertex="1" parent="1">
          <mxGeometry x="70" y="660" width="160" height="170" as="geometry" />
        </mxCell>
        <mxCell id="MsW9FWLSRBTSgLmZQZIl-31" value="" style="endArrow=none;html=1;rounded=0;exitX=1;exitY=0.2;exitDx=0;exitDy=0;exitPerimeter=0;edgeStyle=orthogonalEdgeStyle;jumpStyle=arc;jumpSize=14;" edge="1" parent="1" source="MsW9FWLSRBTSgLmZQZIl-30">
          <mxGeometry width="50" height="50" relative="1" as="geometry">
            <mxPoint x="340" y="590" as="sourcePoint" />
            <mxPoint x="300" y="420" as="targetPoint" />
          </mxGeometry>
        </mxCell>
        <mxCell id="MsW9FWLSRBTSgLmZQZIl-32" value="GND" style="edgeLabel;html=1;align=center;verticalAlign=middle;resizable=0;points=[];" vertex="1" connectable="0" parent="MsW9FWLSRBTSgLmZQZIl-31">
          <mxGeometry x="-0.9093" y="1" relative="1" as="geometry">
            <mxPoint x="10" as="offset" />
          </mxGeometry>
        </mxCell>
        <mxCell id="MsW9FWLSRBTSgLmZQZIl-33" value="" style="endArrow=none;html=1;rounded=0;exitX=1;exitY=0.4;exitDx=0;exitDy=0;exitPerimeter=0;edgeStyle=orthogonalEdgeStyle;fillColor=#f8cecc;strokeColor=#b85450;jumpStyle=arc;jumpSize=14;" edge="1" parent="1" source="MsW9FWLSRBTSgLmZQZIl-30">
          <mxGeometry width="50" height="50" relative="1" as="geometry">
            <mxPoint x="340" y="590" as="sourcePoint" />
            <mxPoint x="330" y="380" as="targetPoint" />
          </mxGeometry>
        </mxCell>
        <mxCell id="MsW9FWLSRBTSgLmZQZIl-34" value="VCC" style="edgeLabel;html=1;align=center;verticalAlign=middle;resizable=0;points=[];" vertex="1" connectable="0" parent="MsW9FWLSRBTSgLmZQZIl-33">
          <mxGeometry x="-0.931" y="2" relative="1" as="geometry">
            <mxPoint x="10" as="offset" />
          </mxGeometry>
        </mxCell>
        <mxCell id="MsW9FWLSRBTSgLmZQZIl-35" value="" style="endArrow=none;html=1;rounded=0;exitX=1;exitY=0.6;exitDx=0;exitDy=0;exitPerimeter=0;edgeStyle=orthogonalEdgeStyle;entryX=0;entryY=0.5;entryDx=0;entryDy=96;entryPerimeter=0;fillColor=#dae8fc;strokeColor=#6c8ebf;" edge="1" parent="1" source="MsW9FWLSRBTSgLmZQZIl-30" target="MsW9FWLSRBTSgLmZQZIl-1">
          <mxGeometry width="50" height="50" relative="1" as="geometry">
            <mxPoint x="460" y="590" as="sourcePoint" />
            <mxPoint x="390" y="762" as="targetPoint" />
            <Array as="points">
              <mxPoint x="430" y="762" />
              <mxPoint x="430" y="466" />
            </Array>
          </mxGeometry>
        </mxCell>
        <mxCell id="MsW9FWLSRBTSgLmZQZIl-36" value="SDA" style="edgeLabel;html=1;align=center;verticalAlign=middle;resizable=0;points=[];" vertex="1" connectable="0" parent="MsW9FWLSRBTSgLmZQZIl-35">
          <mxGeometry x="-0.6545" y="1" relative="1" as="geometry">
            <mxPoint x="-82" as="offset" />
          </mxGeometry>
        </mxCell>
        <mxCell id="MsW9FWLSRBTSgLmZQZIl-37" value="A4" style="text;html=1;align=center;verticalAlign=middle;whiteSpace=wrap;rounded=0;" vertex="1" parent="1">
          <mxGeometry x="560" y="445" width="60" height="30" as="geometry" />
        </mxCell>
        <mxCell id="MsW9FWLSRBTSgLmZQZIl-38" value="" style="endArrow=none;html=1;rounded=0;exitX=1;exitY=0.8;exitDx=0;exitDy=0;exitPerimeter=0;edgeStyle=orthogonalEdgeStyle;entryX=0.2;entryY=1;entryDx=0;entryDy=0;entryPerimeter=0;fillColor=#d5e8d4;strokeColor=#82b366;" edge="1" parent="1" source="MsW9FWLSRBTSgLmZQZIl-30" target="MsW9FWLSRBTSgLmZQZIl-1">
          <mxGeometry width="50" height="50" relative="1" as="geometry">
            <mxPoint x="460" y="670" as="sourcePoint" />
            <mxPoint x="500" y="796" as="targetPoint" />
            <Array as="points">
              <mxPoint x="480" y="796" />
              <mxPoint x="480" y="550" />
              <mxPoint x="616" y="550" />
            </Array>
          </mxGeometry>
        </mxCell>
        <mxCell id="MsW9FWLSRBTSgLmZQZIl-39" value="SCL" style="edgeLabel;html=1;align=center;verticalAlign=middle;resizable=0;points=[];" vertex="1" connectable="0" parent="MsW9FWLSRBTSgLmZQZIl-38">
          <mxGeometry x="-0.8114" relative="1" as="geometry">
            <mxPoint x="-38" as="offset" />
          </mxGeometry>
        </mxCell>
        <mxCell id="MsW9FWLSRBTSgLmZQZIl-40" value="A5" style="text;html=1;align=center;verticalAlign=middle;whiteSpace=wrap;rounded=0;" vertex="1" parent="1">
          <mxGeometry x="590" y="475" width="60" height="30" as="geometry" />
        </mxCell>
        <mxCell id="MsW9FWLSRBTSgLmZQZIl-43" value="" style="endArrow=none;html=1;rounded=0;edgeStyle=orthogonalEdgeStyle;fillColor=#f8cecc;strokeColor=#b85450;" edge="1" parent="1">
          <mxGeometry width="50" height="50" relative="1" as="geometry">
            <mxPoint x="330" y="220" as="sourcePoint" />
            <mxPoint x="840" y="680" as="targetPoint" />
          </mxGeometry>
        </mxCell>
        <mxCell id="MsW9FWLSRBTSgLmZQZIl-45" value="DHT22 AM2302 Temperature and Humidity Sensor (Hot side)" style="rounded=0;whiteSpace=wrap;html=1;" vertex="1" parent="1">
          <mxGeometry x="520" y="880" width="110" height="130" as="geometry" />
        </mxCell>
        <mxCell id="MsW9FWLSRBTSgLmZQZIl-46" value="DHT22 AM2302 Temperature and Humidity Sensor (Cold side)" style="rounded=0;whiteSpace=wrap;html=1;" vertex="1" parent="1">
          <mxGeometry x="760" y="880" width="110" height="130" as="geometry" />
        </mxCell>
        <mxCell id="MsW9FWLSRBTSgLmZQZIl-47" value="" style="endArrow=none;html=1;rounded=0;edgeStyle=orthogonalEdgeStyle;" edge="1" parent="1">
          <mxGeometry width="50" height="50" relative="1" as="geometry">
            <mxPoint x="300" y="180" as="sourcePoint" />
            <mxPoint x="880" y="680" as="targetPoint" />
          </mxGeometry>
        </mxCell>
        <mxCell id="MsW9FWLSRBTSgLmZQZIl-48" value="" style="endArrow=none;html=1;rounded=0;edgeStyle=orthogonalEdgeStyle;exitX=0.25;exitY=0;exitDx=0;exitDy=0;fillColor=#f8cecc;strokeColor=#b85450;" edge="1" parent="1" source="MsW9FWLSRBTSgLmZQZIl-45">
          <mxGeometry width="50" height="50" relative="1" as="geometry">
            <mxPoint x="530" y="800" as="sourcePoint" />
            <mxPoint x="840" y="680" as="targetPoint" />
            <Array as="points">
              <mxPoint x="548" y="680" />
            </Array>
          </mxGeometry>
        </mxCell>
        <mxCell id="MsW9FWLSRBTSgLmZQZIl-49" value="VCC" style="edgeLabel;html=1;align=center;verticalAlign=middle;resizable=0;points=[];" vertex="1" connectable="0" parent="MsW9FWLSRBTSgLmZQZIl-48">
          <mxGeometry x="-0.9113" relative="1" as="geometry">
            <mxPoint as="offset" />
          </mxGeometry>
        </mxCell>
        <mxCell id="MsW9FWLSRBTSgLmZQZIl-50" value="" style="endArrow=none;html=1;rounded=0;edgeStyle=orthogonalEdgeStyle;exitX=0.25;exitY=0;exitDx=0;exitDy=0;fillColor=#f8cecc;strokeColor=#b85450;" edge="1" parent="1" source="MsW9FWLSRBTSgLmZQZIl-46">
          <mxGeometry width="50" height="50" relative="1" as="geometry">
            <mxPoint x="720" y="900" as="sourcePoint" />
            <mxPoint x="840" y="680" as="targetPoint" />
            <Array as="points">
              <mxPoint x="788" y="730" />
              <mxPoint x="840" y="730" />
            </Array>
          </mxGeometry>
        </mxCell>
        <mxCell id="MsW9FWLSRBTSgLmZQZIl-51" value="VCC" style="edgeLabel;html=1;align=center;verticalAlign=middle;resizable=0;points=[];" vertex="1" connectable="0" parent="MsW9FWLSRBTSgLmZQZIl-50">
          <mxGeometry x="-0.9113" relative="1" as="geometry">
            <mxPoint y="-9" as="offset" />
          </mxGeometry>
        </mxCell>
        <mxCell id="MsW9FWLSRBTSgLmZQZIl-52" value="" style="endArrow=none;html=1;rounded=0;edgeStyle=orthogonalEdgeStyle;exitX=0.5;exitY=0;exitDx=0;exitDy=0;jumpStyle=arc;jumpSize=14;" edge="1" parent="1" source="MsW9FWLSRBTSgLmZQZIl-45">
          <mxGeometry width="50" height="50" relative="1" as="geometry">
            <mxPoint x="660" y="740" as="sourcePoint" />
            <mxPoint x="880" y="680" as="targetPoint" />
            <Array as="points">
              <mxPoint x="575" y="710" />
              <mxPoint x="880" y="710" />
            </Array>
          </mxGeometry>
        </mxCell>
        <mxCell id="MsW9FWLSRBTSgLmZQZIl-53" value="GND" style="edgeLabel;html=1;align=center;verticalAlign=middle;resizable=0;points=[];" vertex="1" connectable="0" parent="MsW9FWLSRBTSgLmZQZIl-52">
          <mxGeometry x="-0.9078" y="1" relative="1" as="geometry">
            <mxPoint as="offset" />
          </mxGeometry>
        </mxCell>
        <mxCell id="MsW9FWLSRBTSgLmZQZIl-54" value="" style="endArrow=none;html=1;rounded=0;edgeStyle=orthogonalEdgeStyle;exitX=0.5;exitY=0;exitDx=0;exitDy=0;" edge="1" parent="1" source="MsW9FWLSRBTSgLmZQZIl-46">
          <mxGeometry width="50" height="50" relative="1" as="geometry">
            <mxPoint x="870" y="910" as="sourcePoint" />
            <mxPoint x="880" y="710" as="targetPoint" />
            <Array as="points">
              <mxPoint x="815" y="780" />
              <mxPoint x="880" y="780" />
            </Array>
          </mxGeometry>
        </mxCell>
        <mxCell id="MsW9FWLSRBTSgLmZQZIl-55" value="GND" style="edgeLabel;html=1;align=center;verticalAlign=middle;resizable=0;points=[];" vertex="1" connectable="0" parent="MsW9FWLSRBTSgLmZQZIl-54">
          <mxGeometry x="-0.9078" y="1" relative="1" as="geometry">
            <mxPoint x="1" y="-9" as="offset" />
          </mxGeometry>
        </mxCell>
        <mxCell id="MsW9FWLSRBTSgLmZQZIl-56" value="" style="endArrow=none;html=1;rounded=0;edgeStyle=orthogonalEdgeStyle;exitX=0.75;exitY=0;exitDx=0;exitDy=0;entryX=0.4;entryY=1;entryDx=0;entryDy=0;entryPerimeter=0;fillColor=#e1d5e7;strokeColor=#9673a6;jumpStyle=arc;jumpSize=14;" edge="1" parent="1" source="MsW9FWLSRBTSgLmZQZIl-45" target="MsW9FWLSRBTSgLmZQZIl-1">
          <mxGeometry width="50" height="50" relative="1" as="geometry">
            <mxPoint x="620" y="830" as="sourcePoint" />
            <mxPoint x="620" y="690" as="targetPoint" />
            <Array as="points">
              <mxPoint x="603" y="770" />
              <mxPoint x="662" y="770" />
            </Array>
          </mxGeometry>
        </mxCell>
        <mxCell id="MsW9FWLSRBTSgLmZQZIl-58" value="DATA" style="edgeLabel;html=1;align=center;verticalAlign=middle;resizable=0;points=[];" vertex="1" connectable="0" parent="MsW9FWLSRBTSgLmZQZIl-56">
          <mxGeometry x="-0.885" y="1" relative="1" as="geometry">
            <mxPoint y="15" as="offset" />
          </mxGeometry>
        </mxCell>
        <mxCell id="MsW9FWLSRBTSgLmZQZIl-57" value="8" style="text;html=1;align=center;verticalAlign=middle;whiteSpace=wrap;rounded=0;" vertex="1" parent="1">
          <mxGeometry x="630" y="475" width="60" height="30" as="geometry" />
        </mxCell>
        <mxCell id="MsW9FWLSRBTSgLmZQZIl-59" value="" style="endArrow=none;html=1;rounded=0;edgeStyle=orthogonalEdgeStyle;exitX=0.75;exitY=0;exitDx=0;exitDy=0;entryX=0.6;entryY=1;entryDx=0;entryDy=0;entryPerimeter=0;fillColor=#ffe6cc;strokeColor=#d79b00;jumpStyle=arc;jumpSize=14;" edge="1" parent="1" source="MsW9FWLSRBTSgLmZQZIl-46" target="MsW9FWLSRBTSgLmZQZIl-1">
          <mxGeometry width="50" height="50" relative="1" as="geometry">
            <mxPoint x="970" y="780" as="sourcePoint" />
            <mxPoint x="970" y="550" as="targetPoint" />
            <Array as="points">
              <mxPoint x="843" y="810" />
              <mxPoint x="971" y="810" />
              <mxPoint x="971" y="590" />
              <mxPoint x="708" y="590" />
            </Array>
          </mxGeometry>
        </mxCell>
        <mxCell id="MsW9FWLSRBTSgLmZQZIl-61" value="DATA" style="edgeLabel;html=1;align=center;verticalAlign=middle;resizable=0;points=[];" vertex="1" connectable="0" parent="MsW9FWLSRBTSgLmZQZIl-59">
          <mxGeometry x="-0.9656" y="1" relative="1" as="geometry">
            <mxPoint y="3" as="offset" />
          </mxGeometry>
        </mxCell>
        <mxCell id="MsW9FWLSRBTSgLmZQZIl-60" value="6" style="text;html=1;align=center;verticalAlign=middle;whiteSpace=wrap;rounded=0;" vertex="1" parent="1">
          <mxGeometry x="680" y="475" width="60" height="30" as="geometry" />
        </mxCell>
        <mxCell id="MsW9FWLSRBTSgLmZQZIl-65" value="" style="endArrow=none;html=1;rounded=0;entryX=0.8;entryY=1;entryDx=0;entryDy=0;entryPerimeter=0;edgeStyle=orthogonalEdgeStyle;exitX=0;exitY=0.5;exitDx=0;exitDy=0;fillColor=#dae8fc;strokeColor=#6c8ebf;" edge="1" parent="1" source="MsW9FWLSRBTSgLmZQZIl-62" target="MsW9FWLSRBTSgLmZQZIl-1">
          <mxGeometry width="50" height="50" relative="1" as="geometry">
            <mxPoint x="770" y="560" as="sourcePoint" />
            <mxPoint x="800" y="530" as="targetPoint" />
          </mxGeometry>
        </mxCell>
        <mxCell id="MsW9FWLSRBTSgLmZQZIl-66" value="10" style="text;html=1;align=center;verticalAlign=middle;whiteSpace=wrap;rounded=0;" vertex="1" parent="1">
          <mxGeometry x="730" y="475" width="60" height="30" as="geometry" />
        </mxCell>
        <mxCell id="MsW9FWLSRBTSgLmZQZIl-70" value="" style="group" vertex="1" connectable="0" parent="1">
          <mxGeometry x="790" y="500" width="30" height="60" as="geometry" />
        </mxCell>
        <mxCell id="MsW9FWLSRBTSgLmZQZIl-64" value="" style="group" vertex="1" connectable="0" parent="MsW9FWLSRBTSgLmZQZIl-70">
          <mxGeometry y="20" width="30" height="40" as="geometry" />
        </mxCell>
        <mxCell id="MsW9FWLSRBTSgLmZQZIl-62" value="" style="triangle;whiteSpace=wrap;html=1;" vertex="1" parent="MsW9FWLSRBTSgLmZQZIl-64">
          <mxGeometry width="30" height="40" as="geometry" />
        </mxCell>
        <mxCell id="MsW9FWLSRBTSgLmZQZIl-63" value="" style="endArrow=none;html=1;rounded=0;" edge="1" parent="MsW9FWLSRBTSgLmZQZIl-64">
          <mxGeometry width="50" height="50" relative="1" as="geometry">
            <mxPoint x="30" y="40" as="sourcePoint" />
            <mxPoint x="30" as="targetPoint" />
          </mxGeometry>
        </mxCell>
        <mxCell id="MsW9FWLSRBTSgLmZQZIl-67" value="" style="endArrow=classic;html=1;rounded=0;" edge="1" parent="MsW9FWLSRBTSgLmZQZIl-70">
          <mxGeometry width="50" height="50" relative="1" as="geometry">
            <mxPoint x="5" y="20" as="sourcePoint" />
            <mxPoint x="20" as="targetPoint" />
          </mxGeometry>
        </mxCell>
        <mxCell id="MsW9FWLSRBTSgLmZQZIl-69" value="" style="endArrow=classic;html=1;rounded=0;" edge="1" parent="MsW9FWLSRBTSgLmZQZIl-70">
          <mxGeometry width="50" height="50" relative="1" as="geometry">
            <mxPoint x="15" y="27" as="sourcePoint" />
            <mxPoint x="30" y="7" as="targetPoint" />
          </mxGeometry>
        </mxCell>
        <mxCell id="MsW9FWLSRBTSgLmZQZIl-71" value="" style="endArrow=none;html=1;rounded=0;" edge="1" parent="1">
          <mxGeometry width="50" height="50" relative="1" as="geometry">
            <mxPoint x="820" y="540" as="sourcePoint" />
            <mxPoint x="880" y="540" as="targetPoint" />
          </mxGeometry>
        </mxCell>
      </root>
    </mxGraphModel>
  </diagram>
</mxfile>
